<svg xmlns="http://www.w3.org/2000/svg" viewBox="0 0 32 32" fill="none">
  <circle cx="16" cy="16" r="16" fill="#F7931A"/>
  <path fill="#fff" d="M18.2 14.2c.3-1.8-1.1-2.8-3-3.4l.6-2.5-1.5-.4-.6 2.4c-.4-.1-.8-.2-1.2-.3l.6-2.4-1.5-.4-.6 2.5c-.3-.1-.6-.1-.9-.2l-2.1-.5-.4 1.6s1.1.3 1.1.3c.6.2.7.5.7.9l-.7 2.8c0 0 .1 0 .2.1h-.2l-1 4c-.1.2-.3.5-.7.4 0 0-1.1-.3-1.1-.3l-.7 1.7 2 .5c.4.1.7.2 1.1.3l-.6 2.5 1.5.4.6-2.5c.4.1.8.2 1.2.3l-.6 2.4 1.5.4.6-2.5c2.5.5 4.4.3 5.2-2 .6-1.8 0-2.9-1.3-3.5 1-.2 1.7-1 1.9-2.4zm-3.4 4.8c-.5 1.8-3.5.8-4.5.6l.8-3.2c1 .2 4.1.7 3.7 2.6zm.4-4.8c-.4 1.7-2.9.8-3.7.6l.7-2.9c.8.2 3.5.6 3 2.3z"/>
</svg>
